<svg xmlns="http://www.w3.org/2000/svg" viewBox="0 0 512 512" width="512" height="512">
  <rect width="512" height="512" rx="112" fill="#0f0f0f"/>

  <g stroke="#ff1a1a" stroke-width="24" stroke-linecap="round">
    <line x1="256" y1="48" x2="256" y2="128" />
    <line x1="256" y1="384" x2="256" y2="464" />
    <line x1="48" y1="256" x2="128" y2="256" />
    <line x1="384" y1="256" x2="464" y2="256" />
  </g>

  <g stroke="#ff1a1a" stroke-width="16" fill="none" stroke-linecap="round" stroke-linejoin="round">
    <path d="M 128 128 L 96 128 L 96 160" />
    <path d="M 384 128 L 416 128 L 416 160" />
    <path d="M 128 384 L 96 384 L 96 352" />
    <path d="M 384 384 L 416 384 L 416 352" />
  </g>

  <path d="M 256 176 C 144 176 80 256 80 256 C 80 256 144 336 256 336 C 368 336 432 256 432 256 C 432 256 368 176 256 176 Z" fill="#ffffff" />

  <ellipse cx="256" cy="256" rx="24" ry="56" fill="#0f0f0f" />
</svg>
